Coordinates
version=1
nRows=14
nColumns=40
inDegrees=yes

Units are S.I. units (second, meters, Newtons, ...)
If the header above contains a line with 'inDegrees', this indicates whether rotational values are in degrees (yes) or radians (no).

endheader
time	pelvis_tilt	pelvis_list	pelvis_rotation	pelvis_tx	pelvis_ty	pelvis_tz	hip_flexion_r	hip_adduction_r	hip_rotation_r	knee_angle_r	knee_angle_r_beta	ankle_angle_r	subtalar_angle_r	mtp_angle_r	hip_flexion_l	hip_adduction_l	hip_rotation_l	knee_angle_l	knee_angle_l_beta	ankle_angle_l	subtalar_angle_l	mtp_angle_l	lumbar_extension	lumbar_bending	lumbar_rotation	arm_flex_r	arm_add_r	arm_rot_r	elbow_flex_r	pro_sup_r	wrist_flex_r	wrist_dev_r	arm_flex_l	arm_add_l	arm_rot_l	elbow_flex_l	pro_sup_l	wrist_flex_l	wrist_dev_l
      5.85000000	    -34.24150680	     -3.28181943	     -1.76389137	     -0.44473832	      0.69613956	     -0.91787855	     86.14877834	     -9.07663085	      2.25331367	     90.20548797	      1.57438277	     37.39837959	      0.00000000	      0.00000000	     90.55490031	    -18.84360016	      9.65662870	     89.16514520	      1.55622536	     33.66254915	      0.00000000	      0.00000000	    -19.02859787	      2.33908064	      7.30468437	     11.75760095	    -55.17915575	     78.38291086	     93.36019553	     85.71778428	      0.00000000	      0.00000000	    -10.48981236	    -49.61116509	     45.38040299	     98.35184553	     87.82379232	      0.00000000	      0.00000000
      5.85500000	    -33.94703970	     -2.99510231	     -1.73154839	     -0.44355464	      0.69815400	     -0.91820068	     85.72725412	     -9.19022549	      2.50699162	     90.02971116	      1.57131488	     37.14813660	      0.00000000	      0.00000000	     89.84118949	    -18.70167280	      9.33169572	     88.92606885	      1.55205269	     33.61335445	      0.00000000	      0.00000000	    -19.07825431	      2.09186419	      7.15267832	     12.34023332	    -55.07404232	     79.10468529	     93.24373441	     86.14817167	      0.00000000	      0.00000000	     -9.96915086	    -49.66325036	     46.01879908	     98.11625613	     87.60962300	      0.00000000	      0.00000000
      5.86000000	    -33.93822207	     -3.28053023	     -1.62083788	     -0.44251327	      0.69951243	     -0.91827235	     85.38981260	     -9.18092022	      2.21156740	     89.78405870	      1.56702744	     37.22466840	      0.00000000	      0.00000000	     89.74395929	    -18.57997572	      9.67150683	     88.72359006	      1.54851877	     33.50695323	      0.00000000	      0.00000000	    -18.77316207	      2.46395921	      7.40725331	     11.85047467	    -55.14259190	     78.79906888	     93.19494789	     86.08606605	      0.00000000	      0.00000000	     -8.76808284	    -49.78368716	     47.37011071	     97.95960711	     87.59449675	      0.00000000	      0.00000000
      5.86500000	    -33.86565238	     -3.23116052	     -1.54150166	     -0.44159039	      0.70127659	     -0.91853509	     85.08428837	     -9.23037187	      2.27110858	     89.47603893	      1.56165148	     37.13930862	      0.00000000	      0.00000000	     89.39425236	    -18.41274807	      9.62886331	     88.45452270	      1.54382266	     33.46739485	      0.00000000	      0.00000000	    -18.58404967	      2.47385792	      7.23166903	     11.87353857	    -55.08706698	     78.80328140	     93.21569918	     86.13428177	      0.00000000	      0.00000000	     -8.75713851	    -49.78891808	     47.37067546	     97.95255048	     87.56536316	      0.00000000	      0.00000000
      5.87000000	    -33.50500652	     -3.05063686	     -1.56834957	     -0.43977619	      0.70362254	     -0.91856059	     84.47351950	     -9.22978777	      2.41804244	     89.23305119	      1.55741054	     37.16090911	      0.00000000	      0.00000000	     88.57909274	    -18.36782120	      9.43195644	     88.15956457	      1.53867467	     33.52961597	      0.00000000	      0.00000000	    -18.67687853	      2.28475037	      7.12057147	     12.01564691	    -54.91844456	     78.83267920	     93.02791009	     86.20835740	      0.00000000	      0.00000000	     -8.65262792	    -49.73477800	     47.39748532	     97.77301341	     87.52766663	      0.00000000	      0.00000000
      5.87500000	    -33.42901274	     -3.09915915	     -1.51826578	     -0.43865758	      0.70524825	     -0.91862991	     84.14617890	     -9.18682417	      2.40443644	     89.00841311	      1.55348987	     37.23807577	      0.00000000	      0.00000000	     88.26035763	    -18.26956691	      9.48750042	     87.92672089	      1.53461078	     33.69299781	      0.00000000	      0.00000000	    -18.39431974	      2.37222812	      6.97291315	     12.19348213	    -54.83680539	     79.01303374	     92.89516976	     86.32057965	      0.00000000	      0.00000000	     -8.49440396	    -49.73434906	     47.59604993	     97.65501043	     87.50090489	      0.00000000	      0.00000000
      5.88000000	    -33.28229452	     -3.04719286	     -1.48440783	     -0.43726763	      0.70746150	     -0.91873250	     83.70295924	     -9.15987760	      2.47928198	     88.68180501	      1.54778948	     37.18401037	      0.00000000	      0.00000000	     87.76042240	    -18.14415228	      9.43197458	     87.61558882	      1.52918050	     33.60300836	      0.00000000	      0.00000000	    -18.21286811	      2.35775436	      6.85691632	     12.22048345	    -54.74107430	     79.07735512	     92.88076862	     86.35018983	      0.00000000	      0.00000000	     -8.41747859	    -49.73356704	     47.67632352	     97.57063298	     87.49736943	      0.00000000	      0.00000000
      5.88500000	    -32.84468524	     -2.73841339	     -1.45218388	     -0.43539116	      0.71003860	     -0.91913109	     83.03829034	     -9.26727008	      2.77859385	     88.46868245	      1.54406979	     37.29017437	      0.00000000	      0.00000000	     86.79637900	    -17.98605299	      9.07671722	     87.35254290	      1.52458948	     33.73583646	      0.00000000	      0.00000000	    -18.27536196	      2.08005603	      6.65404764	     12.51515563	    -54.56138698	     79.36052441	     92.57647803	     86.42558339	      0.00000000	      0.00000000	     -7.95774617	    -49.69390044	     48.06463504	     97.26051891	     87.49560954	      0.00000000	      0.00000000
      5.89000000	    -32.64942279	     -2.71957026	     -1.45204164	     -0.43371050	      0.71239253	     -0.91919162	     82.50581995	     -9.21526027	      2.80039521	     88.11175831	      1.53784029	     37.29029134	      0.00000000	      0.00000000	     86.21989519	    -17.92879937	      9.04008194	     87.02394361	      1.51885434	     33.84692532	      0.00000000	      0.00000000	    -18.03557146	      2.09527594	      6.57960192	     12.73029047	    -54.46665878	     79.60136335	     92.44012593	     86.48074954	      0.00000000	      0.00000000	     -7.62436033	    -49.68805416	     48.51051372	     97.05085818	     87.48618506	      0.00000000	      0.00000000
      5.89500000	    -32.56385131	     -2.68641418	     -1.44422024	     -0.43235561	      0.71476829	     -0.91939322	     82.10368175	     -9.15326368	      2.88131977	     87.72145672	      1.53102824	     37.21051595	      0.00000000	      0.00000000	     85.77645104	    -17.79589076	      9.03283827	     86.68692536	      1.51297227	     33.76440970	      0.00000000	      0.00000000	    -17.71640404	      2.11553574	      6.48808223	     12.73171813	    -54.39675807	     79.65798212	     92.47175509	     86.49003711	      0.00000000	      0.00000000	     -7.54250997	    -49.66659781	     48.61214062	     97.03124824	     87.48629743	      0.00000000	      0.00000000
      5.90000000	    -32.42694946	     -2.72846441	     -1.40046263	     -0.43057971	      0.71724460	     -0.91957588	     81.58893281	     -9.08871725	      2.90469843	     87.33757042	      1.52432816	     37.15400235	      0.00000000	      0.00000000	     85.24344296	    -17.67251378	      9.07402129	     86.27041801	      1.50570284	     33.75144764	      0.00000000	      0.00000000	    -17.40673649	      2.20905831	      6.36182282	     12.76759769	    -54.31587511	     79.71414478	     92.38656773	     86.49724631	      0.00000000	      0.00000000	     -7.43195038	    -49.60426776	     48.77763419	     96.89404301	     87.49291436	      0.00000000	      0.00000000
      5.90500000	    -32.19257222	     -2.64001251	     -1.39530758	     -0.42888230	      0.72025088	     -0.91971754	     80.96568788	     -9.04449779	      2.99357443	     86.83667705	      1.51558593	     37.09845324	      0.00000000	      0.00000000	     84.52141635	    -17.50431416	      9.07455212	     85.82775814	      1.49797697	     33.74451343	      0.00000000	      0.00000000	    -17.19416387	      2.17144617	      6.25110566	     12.90039021	    -54.20176394	     79.77345130	     92.25180329	     86.50011562	      0.00000000	      0.00000000	     -7.13463509	    -49.55472099	     48.92391535	     96.69651310	     87.48625311	      0.00000000	      0.00000000
      5.91000000	    -32.04901903	     -2.64860817	     -1.35803753	     -0.42711689	      0.72281730	     -0.92005858	     80.45560052	     -9.01289698	      3.04332667	     86.46992673	      1.50918493	     37.06994469	      0.00000000	      0.00000000	     83.99062502	    -17.39358528	      9.04638861	     85.46021729	      1.49156217	     33.77463005	      0.00000000	      0.00000000	    -16.82017417	      2.25317426	      6.13106439	     12.93654175	    -54.13099999	     79.87163841	     92.14159111	     86.50765377	      0.00000000	      0.00000000	     -6.96766430	    -49.47954632	     49.13942033	     96.58265903	     87.48631401	      0.00000000	      0.00000000
      5.91500000	    -31.46572108	     -2.48070718	     -1.24838714	     -0.42461459	      0.72661689	     -0.92058100	     79.43560295	     -9.19341064	      3.08669787	     86.06277209	      1.50207874	     37.22619287	      0.00000000	      0.00000000	     82.75930986	    -17.12171407	      8.88150720	     84.98076918	      1.48319422	     34.06972986	      0.00000000	      0.00000000	    -16.89989437	      2.15728082	      5.94804554	     13.26116276	    -53.89564429	     80.19192215	     91.62103268	     86.52891377	      0.00000000	      0.00000000	     -6.22825372	    -49.34756686	     49.95821263	     95.99614895	     87.50017413	      0.00000000	      0.00000000
